<svg xmlns="http://www.w3.org/2000/svg" viewBox="0 0 583 583"><defs><style>.cls-1{fill:#3b82f6;}.cls-2{fill:none;stroke:#fcfcfc;stroke-miterlimit:10;stroke-width:10px;}.cls-3{fill:#fff;}</style></defs><g id="Layer_3" data-name="Layer 3"><rect class="cls-1" width="583" height="583" rx="39.02"/><rect class="cls-2" x="9.01" y="8.92" width="565.16" height="565.16" rx="39.02"/><path class="cls-3" d="M442.1,149a12.93,12.93,0,0,0,0-18.27,80.91,80.91,0,0,0-114.28,0A12.92,12.92,0,1,0,346.09,149a55,55,0,0,1,77.74,0A12.91,12.91,0,0,0,442.1,149Z"/><path class="cls-3" d="M354.08,155.83a12.92,12.92,0,0,0,18.27,18.27,17.84,17.84,0,0,1,25.22,0,12.92,12.92,0,0,0,18.27-18.27,43.67,43.67,0,0,0-61.76,0Z"/><path class="cls-3" d="M319.62,117.93a92.42,92.42,0,0,1,130.68,0,12.92,12.92,0,1,0,18.27-18.26,118.22,118.22,0,0,0-167.22,0,12.92,12.92,0,1,0,18.27,18.26Z"/><path id="logo" class="cls-3" d="M394,189.52a13.15,13.15,0,0,0-18.56.56l9.55,9,9.56-9C394.34,189.9,394.16,189.71,394,189.52Z"/><path class="cls-3" d="M496,336.27c-.12-.28-.24-.54-.36-.8-.71-1.55-1.44-3.08-2.17-4.62-17.61-36.79-42.41-72-62.6-97.8q-16-20.51-33.44-39.82l-2.09-2.31-.57-.6-.16-.19-.05,0-9.56,9-9.54-9-.06,0-.15.19-.59.6q-18.54,20.42-35.53,42.13c-20.17,25.79-45,61-62.59,97.8-.73,1.54-1.46,3.07-2.17,4.62-12,26-20.59,53.66-20.59,79.67a143.26,143.26,0,0,0,20.59,74.32,135.28,135.28,0,0,0,43.71,44.63,125.8,125.8,0,0,0,133.85,0A135.28,135.28,0,0,0,496,488.85a143.18,143.18,0,0,0,20.22-73.71C516.19,389.37,507.76,362.06,496,336.27ZM359.78,249.21c9.76-12.52,18.48-22.84,24.77-30l.42-.5.43.5h0c6.27,7.18,15,17.5,24.8,30,16,20.49,34.64,46.6,49.86,74.19H309.9C325.15,295.81,343.75,269.7,359.78,249.21Z"/>
  <path class="cls-3" d="M148.64,29.63a16.37,16.37,0,1,1,0,32.73H99.54v90h16.37a16.37,16.37,0,0,1,0,32.73H99.54v90h49.1a16.37,16.37,0,0,1,0,32.74H99.54v90h16.37a16.37,16.37,0,0,1,0,32.74H99.54v90h49.1a16.37,16.37,0,0,1,.05,32.74H83.18A16.37,16.37,0,0,1,66.81,537V46A16.37,16.37,0,0,1,83.18,29.63Z"/></g>
</svg>